<mxfile host="app.diagrams.net" agent="Mozilla/5.0 (X11; Linux x86_64; rv:109.0) Gecko/20100101 Firefox/115.0" version="24.7.16">
  <diagram name="Page-1" id="Vj2fXtDcxGoJhjf4LWHA">
    <mxGraphModel dx="833" dy="432" grid="1" gridSize="10" guides="1" tooltips="1" connect="1" arrows="1" fold="1" page="1" pageScale="1" pageWidth="850" pageHeight="1100" math="0" shadow="0">
      <root>
        <mxCell id="0" />
        <mxCell id="1" parent="0" />
        <mxCell id="J7M1iKPz1tLLwmHf_Go_-1" value="Alt" style="shape=umlFrame;whiteSpace=wrap;html=1;pointerEvents=0;fillColor=#ffcc99;strokeColor=#36393d;" parent="1" vertex="1">
          <mxGeometry x="225" y="480" width="1415" height="210" as="geometry" />
        </mxCell>
        <mxCell id="J7M1iKPz1tLLwmHf_Go_-2" value="" style="shape=umlLifeline;perimeter=lifelinePerimeter;whiteSpace=wrap;html=1;container=1;dropTarget=0;collapsible=0;recursiveResize=0;outlineConnect=0;portConstraint=eastwest;newEdgeStyle={&quot;curved&quot;:0,&quot;rounded&quot;:0};participant=umlActor;size=40;" parent="1" vertex="1">
          <mxGeometry x="360" y="80" width="20" height="610" as="geometry" />
        </mxCell>
        <mxCell id="J7M1iKPz1tLLwmHf_Go_-5" value="User Interface" style="shape=umlLifeline;perimeter=lifelinePerimeter;whiteSpace=wrap;html=1;container=1;dropTarget=0;collapsible=0;recursiveResize=0;outlineConnect=0;portConstraint=eastwest;newEdgeStyle={&quot;curved&quot;:0,&quot;rounded&quot;:0};fillColor=#cce5ff;strokeColor=#36393d;" parent="1" vertex="1">
          <mxGeometry x="500" y="110" width="100" height="580" as="geometry" />
        </mxCell>
        <mxCell id="J7M1iKPz1tLLwmHf_Go_-7" value="" style="html=1;points=[[0,0,0,0,5],[0,1,0,0,-5],[1,0,0,0,5],[1,1,0,0,-5]];perimeter=orthogonalPerimeter;outlineConnect=0;targetShapes=umlLifeline;portConstraint=eastwest;newEdgeStyle={&quot;curved&quot;:0,&quot;rounded&quot;:0};fillColor=#cce5ff;strokeColor=#36393d;" parent="J7M1iKPz1tLLwmHf_Go_-5" vertex="1">
          <mxGeometry x="47.5" y="295" width="5" height="245" as="geometry" />
        </mxCell>
        <mxCell id="fEn0n0unOJq2FUW5Gldk-1" value="" style="html=1;points=[[0,0,0,0,5],[0,1,0,0,-5],[1,0,0,0,5],[1,1,0,0,-5]];perimeter=orthogonalPerimeter;outlineConnect=0;targetShapes=umlLifeline;portConstraint=eastwest;newEdgeStyle={&quot;curved&quot;:0,&quot;rounded&quot;:0};fillColor=#dae8fc;strokeColor=#6c8ebf;" parent="J7M1iKPz1tLLwmHf_Go_-5" vertex="1">
          <mxGeometry x="45" y="220" width="10" height="20" as="geometry" />
        </mxCell>
        <mxCell id="J7M1iKPz1tLLwmHf_Go_-8" value="API-Gateway" style="shape=umlLifeline;perimeter=lifelinePerimeter;whiteSpace=wrap;html=1;container=1;dropTarget=0;collapsible=0;recursiveResize=0;outlineConnect=0;portConstraint=eastwest;newEdgeStyle={&quot;curved&quot;:0,&quot;rounded&quot;:0};fillColor=#cce5ff;strokeColor=#36393d;" parent="1" vertex="1">
          <mxGeometry x="640" y="110" width="100" height="580" as="geometry" />
        </mxCell>
        <mxCell id="J7M1iKPz1tLLwmHf_Go_-9" value="" style="html=1;points=[[0,0,0,0,5],[0,1,0,0,-5],[1,0,0,0,5],[1,1,0,0,-5]];perimeter=orthogonalPerimeter;outlineConnect=0;targetShapes=umlLifeline;portConstraint=eastwest;newEdgeStyle={&quot;curved&quot;:0,&quot;rounded&quot;:0};fillColor=#cce5ff;strokeColor=#36393d;" parent="J7M1iKPz1tLLwmHf_Go_-8" vertex="1">
          <mxGeometry x="47.5" y="297.5" width="5" height="242.5" as="geometry" />
        </mxCell>
        <mxCell id="J7M1iKPz1tLLwmHf_Go_-10" value="Order Controller" style="shape=umlLifeline;perimeter=lifelinePerimeter;whiteSpace=wrap;html=1;container=1;dropTarget=0;collapsible=0;recursiveResize=0;outlineConnect=0;portConstraint=eastwest;newEdgeStyle={&quot;curved&quot;:0,&quot;rounded&quot;:0};fillColor=#ffff88;strokeColor=#36393d;" parent="1" vertex="1">
          <mxGeometry x="780" y="110" width="100" height="580" as="geometry" />
        </mxCell>
        <mxCell id="J7M1iKPz1tLLwmHf_Go_-11" value="Order Service" style="shape=umlLifeline;perimeter=lifelinePerimeter;whiteSpace=wrap;html=1;container=1;dropTarget=0;collapsible=0;recursiveResize=0;outlineConnect=0;portConstraint=eastwest;newEdgeStyle={&quot;curved&quot;:0,&quot;rounded&quot;:0};fillColor=#ffff88;strokeColor=#36393d;" parent="1" vertex="1">
          <mxGeometry x="910" y="110" width="100" height="580" as="geometry" />
        </mxCell>
        <mxCell id="J7M1iKPz1tLLwmHf_Go_-12" value="Product Microservice" style="shape=umlLifeline;perimeter=lifelinePerimeter;whiteSpace=wrap;html=1;container=1;dropTarget=0;collapsible=0;recursiveResize=0;outlineConnect=0;portConstraint=eastwest;newEdgeStyle={&quot;curved&quot;:0,&quot;rounded&quot;:0};fillColor=#ffff88;strokeColor=#36393d;" parent="1" vertex="1">
          <mxGeometry x="1050" y="110" width="100" height="580" as="geometry" />
        </mxCell>
        <mxCell id="J7M1iKPz1tLLwmHf_Go_-13" value="Réf" style="shape=umlFrame;whiteSpace=wrap;html=1;pointerEvents=0;fillColor=#ffcccc;strokeColor=#36393d;" parent="1" vertex="1">
          <mxGeometry x="310" y="170" width="500" height="100" as="geometry" />
        </mxCell>
        <mxCell id="J7M1iKPz1tLLwmHf_Go_-14" value="&lt;b&gt;&lt;font style=&quot;font-size: 13px;&quot;&gt;S&#39;authentifier&lt;/font&gt;&lt;/b&gt;" style="text;html=1;align=center;verticalAlign=middle;resizable=0;points=[];autosize=1;strokeColor=none;fillColor=none;" parent="1" vertex="1">
          <mxGeometry x="540" y="205" width="110" height="30" as="geometry" />
        </mxCell>
        <mxCell id="J7M1iKPz1tLLwmHf_Go_-15" value="&lt;font style=&quot;font-size: 10px;&quot;&gt;1: cliquer sur commander&lt;br&gt;&lt;/font&gt;" style="html=1;verticalAlign=bottom;endArrow=block;curved=0;rounded=0;" parent="1" source="J7M1iKPz1tLLwmHf_Go_-2" edge="1">
          <mxGeometry width="80" relative="1" as="geometry">
            <mxPoint x="375.31034482758605" y="310" as="sourcePoint" />
            <mxPoint x="550" y="310" as="targetPoint" />
          </mxGeometry>
        </mxCell>
        <mxCell id="J7M1iKPz1tLLwmHf_Go_-16" value="&lt;font style=&quot;font-size: 10px;&quot;&gt;3: confirmer la commande&lt;br&gt;&lt;/font&gt;" style="html=1;verticalAlign=bottom;endArrow=block;curved=0;rounded=0;" parent="1" target="J7M1iKPz1tLLwmHf_Go_-2" edge="1">
          <mxGeometry width="80" relative="1" as="geometry">
            <mxPoint x="550" y="349.76" as="sourcePoint" />
            <mxPoint x="375.5" y="349.76" as="targetPoint" />
          </mxGeometry>
        </mxCell>
        <mxCell id="J7M1iKPz1tLLwmHf_Go_-17" value="&lt;font style=&quot;font-size: 10px;&quot;&gt;4: confirmation terminée&lt;br&gt;&lt;/font&gt;" style="html=1;verticalAlign=bottom;endArrow=block;curved=0;rounded=0;entryX=0;entryY=0;entryDx=0;entryDy=5;entryPerimeter=0;" parent="1" target="J7M1iKPz1tLLwmHf_Go_-7" edge="1">
          <mxGeometry width="80" relative="1" as="geometry">
            <mxPoint x="375" y="410" as="sourcePoint" />
            <mxPoint x="540" y="410" as="targetPoint" />
          </mxGeometry>
        </mxCell>
        <mxCell id="J7M1iKPz1tLLwmHf_Go_-18" value="&lt;font style=&quot;font-size: 10px;&quot;&gt;5: placeOrder&lt;br&gt;&lt;/font&gt;" style="html=1;verticalAlign=bottom;endArrow=block;curved=0;rounded=0;exitX=1;exitY=0;exitDx=0;exitDy=5;exitPerimeter=0;" parent="1" source="J7M1iKPz1tLLwmHf_Go_-7" edge="1">
          <mxGeometry width="80" relative="1" as="geometry">
            <mxPoint x="560" y="410" as="sourcePoint" />
            <mxPoint x="688" y="410" as="targetPoint" />
          </mxGeometry>
        </mxCell>
        <mxCell id="J7M1iKPz1tLLwmHf_Go_-19" value="" style="html=1;points=[[0,0,0,0,5],[0,1,0,0,-5],[1,0,0,0,5],[1,1,0,0,-5]];perimeter=orthogonalPerimeter;outlineConnect=0;targetShapes=umlLifeline;portConstraint=eastwest;newEdgeStyle={&quot;curved&quot;:0,&quot;rounded&quot;:0};fillColor=#cce5ff;strokeColor=#36393d;" parent="1" vertex="1">
          <mxGeometry x="827.5" y="410" width="5" height="240" as="geometry" />
        </mxCell>
        <mxCell id="J7M1iKPz1tLLwmHf_Go_-20" value="" style="html=1;points=[[0,0,0,0,5],[0,1,0,0,-5],[1,0,0,0,5],[1,1,0,0,-5]];perimeter=orthogonalPerimeter;outlineConnect=0;targetShapes=umlLifeline;portConstraint=eastwest;newEdgeStyle={&quot;curved&quot;:0,&quot;rounded&quot;:0};fillColor=#dae8fc;strokeColor=#6c8ebf;" parent="1" vertex="1">
          <mxGeometry x="957.5" y="410" width="5" height="230" as="geometry" />
        </mxCell>
        <mxCell id="J7M1iKPz1tLLwmHf_Go_-21" value="&lt;font style=&quot;font-size: 10px;&quot;&gt;6: dispatcher vers &lt;font style=&quot;font-size: 10px;&quot;&gt;placeOrder&lt;/font&gt;&lt;/font&gt;" style="html=1;verticalAlign=bottom;endArrow=block;curved=0;rounded=0;" parent="1" source="J7M1iKPz1tLLwmHf_Go_-9" edge="1">
          <mxGeometry x="-0.0027" width="80" relative="1" as="geometry">
            <mxPoint x="697" y="410" as="sourcePoint" />
            <mxPoint x="827" y="410" as="targetPoint" />
            <mxPoint as="offset" />
          </mxGeometry>
        </mxCell>
        <mxCell id="J7M1iKPz1tLLwmHf_Go_-22" value="&lt;font style=&quot;font-size: 10px;&quot;&gt;7:&amp;nbsp;&lt;font style=&quot;font-size: 10px;&quot;&gt;placeOrder&lt;/font&gt;&lt;font style=&quot;font-size: 10px;&quot;&gt;()&lt;/font&gt;&lt;/font&gt;" style="html=1;verticalAlign=bottom;endArrow=block;rounded=0;" parent="1" edge="1">
          <mxGeometry x="-0.08" y="10" width="80" relative="1" as="geometry">
            <mxPoint x="835" y="419.9999999999999" as="sourcePoint" />
            <mxPoint x="955" y="419.9999999999999" as="targetPoint" />
            <mxPoint as="offset" />
          </mxGeometry>
        </mxCell>
        <mxCell id="J7M1iKPz1tLLwmHf_Go_-32" value="Echec" style="text;html=1;align=center;verticalAlign=middle;resizable=0;points=[];autosize=1;strokeColor=none;fillColor=none;" parent="1" vertex="1">
          <mxGeometry x="265" y="610" width="60" height="30" as="geometry" />
        </mxCell>
        <mxCell id="J7M1iKPz1tLLwmHf_Go_-33" value="&lt;h2 style=&quot;font-size: 17px;&quot; class=&quot;AdresseDefinition&quot;&gt;&#x9;&#x9;&#x9;&#x9;&lt;font style=&quot;font-size: 14px; font-weight: normal;&quot;&gt;succès&lt;/font&gt;&lt;/h2&gt;" style="text;html=1;align=center;verticalAlign=middle;resizable=0;points=[];autosize=1;strokeColor=none;fillColor=none;" parent="1" vertex="1">
          <mxGeometry x="260" y="520" width="70" height="60" as="geometry" />
        </mxCell>
        <mxCell id="J7M1iKPz1tLLwmHf_Go_-38" value="" style="line;strokeWidth=1;fillColor=none;align=left;verticalAlign=middle;spacingTop=-1;spacingLeft=3;spacingRight=3;rotatable=0;labelPosition=right;points=[];portConstraint=eastwest;strokeColor=inherit;dashed=1;" parent="1" vertex="1">
          <mxGeometry x="225" y="581" width="1415" height="8" as="geometry" />
        </mxCell>
        <mxCell id="J7M1iKPz1tLLwmHf_Go_-39" value="Diagramme de Séquence Objet: Passer une commande" style="shape=umlFrame;whiteSpace=wrap;html=1;pointerEvents=0;width=320;height=30;fillColor=#f9f7ed;strokeColor=#36393d;" parent="1" vertex="1">
          <mxGeometry x="210" y="40" width="1450" height="660" as="geometry" />
        </mxCell>
        <mxCell id="J7M1iKPz1tLLwmHf_Go_-40" value="Profil d&#39;entreprise" style="text;html=1;align=center;verticalAlign=middle;resizable=0;points=[];autosize=1;strokeColor=none;fillColor=none;" parent="1" vertex="1">
          <mxGeometry x="310" y="120" width="120" height="30" as="geometry" />
        </mxCell>
        <mxCell id="fEn0n0unOJq2FUW5Gldk-2" value="&lt;div&gt;2: vérifier&amp;nbsp;&lt;/div&gt;&lt;div&gt;produits dans &lt;br&gt;&lt;/div&gt;&lt;div&gt;panier&lt;br&gt;&lt;/div&gt;" style="html=1;align=left;spacingLeft=2;endArrow=block;rounded=0;edgeStyle=orthogonalEdgeStyle;curved=0;rounded=0;" parent="1" target="fEn0n0unOJq2FUW5Gldk-1" edge="1">
          <mxGeometry relative="1" as="geometry">
            <mxPoint x="550" y="310" as="sourcePoint" />
            <Array as="points">
              <mxPoint x="585" y="340" />
            </Array>
          </mxGeometry>
        </mxCell>
        <mxCell id="fEn0n0unOJq2FUW5Gldk-5" value="Inventory Microservice" style="shape=umlLifeline;perimeter=lifelinePerimeter;whiteSpace=wrap;html=1;container=1;dropTarget=0;collapsible=0;recursiveResize=0;outlineConnect=0;portConstraint=eastwest;newEdgeStyle={&quot;curved&quot;:0,&quot;rounded&quot;:0};fillColor=#ffff88;strokeColor=#36393d;" parent="1" vertex="1">
          <mxGeometry x="1190" y="110" width="100" height="580" as="geometry" />
        </mxCell>
        <mxCell id="fEn0n0unOJq2FUW5Gldk-25" value="" style="html=1;points=[[0,0,0,0,5],[0,1,0,0,-5],[1,0,0,0,5],[1,1,0,0,-5]];perimeter=orthogonalPerimeter;outlineConnect=0;targetShapes=umlLifeline;portConstraint=eastwest;newEdgeStyle={&quot;curved&quot;:0,&quot;rounded&quot;:0};fillColor=#dae8fc;strokeColor=#6c8ebf;" parent="fEn0n0unOJq2FUW5Gldk-5" vertex="1">
          <mxGeometry x="47.5" y="320" width="5" height="190" as="geometry" />
        </mxCell>
        <mxCell id="fEn0n0unOJq2FUW5Gldk-6" value="Order Database" style="shape=umlLifeline;perimeter=lifelinePerimeter;whiteSpace=wrap;html=1;container=1;dropTarget=0;collapsible=0;recursiveResize=0;outlineConnect=0;portConstraint=eastwest;newEdgeStyle={&quot;curved&quot;:0,&quot;rounded&quot;:0};fillColor=#ffff88;strokeColor=#36393d;" parent="1" vertex="1">
          <mxGeometry x="1430" y="110" width="100" height="580" as="geometry" />
        </mxCell>
        <mxCell id="fEn0n0unOJq2FUW5Gldk-28" value="" style="html=1;points=[[0,0,0,0,5],[0,1,0,0,-5],[1,0,0,0,5],[1,1,0,0,-5]];perimeter=orthogonalPerimeter;outlineConnect=0;targetShapes=umlLifeline;portConstraint=eastwest;newEdgeStyle={&quot;curved&quot;:0,&quot;rounded&quot;:0};fillColor=#dae8fc;strokeColor=#6c8ebf;" parent="fEn0n0unOJq2FUW5Gldk-6" vertex="1">
          <mxGeometry x="47.5" y="345" width="5" height="155" as="geometry" />
        </mxCell>
        <mxCell id="fEn0n0unOJq2FUW5Gldk-7" value="&lt;font style=&quot;font-size: 10px;&quot;&gt;8: getProductById()&lt;/font&gt;" style="html=1;verticalAlign=bottom;endArrow=open;rounded=0;endFill=0;exitX=1;exitY=0;exitDx=0;exitDy=5;exitPerimeter=0;" parent="1" edge="1">
          <mxGeometry x="-0.037" width="80" relative="1" as="geometry">
            <mxPoint x="965" y="420" as="sourcePoint" />
            <mxPoint x="1100" y="420" as="targetPoint" />
            <mxPoint as="offset" />
          </mxGeometry>
        </mxCell>
        <mxCell id="fEn0n0unOJq2FUW5Gldk-11" value="Authentification Microservice" style="shape=umlLifeline;perimeter=lifelinePerimeter;whiteSpace=wrap;html=1;container=1;dropTarget=0;collapsible=0;recursiveResize=0;outlineConnect=0;portConstraint=eastwest;newEdgeStyle={&quot;curved&quot;:0,&quot;rounded&quot;:0};fillColor=#ffff88;strokeColor=#36393d;" parent="1" vertex="1">
          <mxGeometry x="1310" y="110" width="100" height="580" as="geometry" />
        </mxCell>
        <mxCell id="fEn0n0unOJq2FUW5Gldk-50" value="" style="html=1;points=[[0,0,0,0,5],[0,1,0,0,-5],[1,0,0,0,5],[1,1,0,0,-5]];perimeter=orthogonalPerimeter;outlineConnect=0;targetShapes=umlLifeline;portConstraint=eastwest;newEdgeStyle={&quot;curved&quot;:0,&quot;rounded&quot;:0};fillColor=#dae8fc;strokeColor=#6c8ebf;" parent="fEn0n0unOJq2FUW5Gldk-11" vertex="1">
          <mxGeometry x="47.5" y="335" width="5" height="175" as="geometry" />
        </mxCell>
        <mxCell id="fEn0n0unOJq2FUW5Gldk-12" value="&lt;font style=&quot;font-size: 9px;&quot;&gt;10: getCustomerById()&lt;/font&gt;" style="html=1;verticalAlign=bottom;endArrow=open;rounded=0;endFill=0;" parent="1" edge="1">
          <mxGeometry x="0.0041" width="80" relative="1" as="geometry">
            <mxPoint x="1239.5" y="450" as="sourcePoint" />
            <mxPoint x="1360" y="450" as="targetPoint" />
            <mxPoint as="offset" />
          </mxGeometry>
        </mxCell>
        <mxCell id="fEn0n0unOJq2FUW5Gldk-14" value="Order Detail Database" style="shape=umlLifeline;perimeter=lifelinePerimeter;whiteSpace=wrap;html=1;container=1;dropTarget=0;collapsible=0;recursiveResize=0;outlineConnect=0;portConstraint=eastwest;newEdgeStyle={&quot;curved&quot;:0,&quot;rounded&quot;:0};fillColor=#ffff88;strokeColor=#36393d;" parent="1" vertex="1">
          <mxGeometry x="1550" y="110" width="100" height="580" as="geometry" />
        </mxCell>
        <mxCell id="fEn0n0unOJq2FUW5Gldk-36" value="" style="html=1;points=[[0,0,0,0,5],[0,1,0,0,-5],[1,0,0,0,5],[1,1,0,0,-5]];perimeter=orthogonalPerimeter;outlineConnect=0;targetShapes=umlLifeline;portConstraint=eastwest;newEdgeStyle={&quot;curved&quot;:0,&quot;rounded&quot;:0};fillColor=#dae8fc;strokeColor=#6c8ebf;" parent="fEn0n0unOJq2FUW5Gldk-14" vertex="1">
          <mxGeometry x="47.5" y="360" width="5" height="130" as="geometry" />
        </mxCell>
        <mxCell id="fEn0n0unOJq2FUW5Gldk-15" value="12: &lt;font style=&quot;font-size: 10px;&quot;&gt;&lt;font style=&quot;font-size: 10px;&quot;&gt;saveOrderDetails&lt;/font&gt;&lt;/font&gt;" style="html=1;verticalAlign=bottom;endArrow=open;rounded=0;endFill=0;entryX=0.5;entryY=0.684;entryDx=0;entryDy=0;entryPerimeter=0;" parent="1" source="fEn0n0unOJq2FUW5Gldk-28" edge="1">
          <mxGeometry x="0.1489" width="80" relative="1" as="geometry">
            <mxPoint x="1490" y="470" as="sourcePoint" />
            <mxPoint x="1600" y="470" as="targetPoint" />
            <mxPoint as="offset" />
          </mxGeometry>
        </mxCell>
        <mxCell id="fEn0n0unOJq2FUW5Gldk-44" value="" style="html=1;verticalAlign=bottom;endArrow=open;rounded=0;dashed=1;endFill=0;" parent="1" edge="1">
          <mxGeometry x="-0.08" y="10" width="80" relative="1" as="geometry">
            <mxPoint x="1599.5" y="494.6600000000001" as="sourcePoint" />
            <mxPoint x="1479.810344827586" y="494.6600000000001" as="targetPoint" />
            <mxPoint as="offset" />
          </mxGeometry>
        </mxCell>
        <mxCell id="fEn0n0unOJq2FUW5Gldk-46" value="&lt;font style=&quot;font-size: 8px;&quot;&gt;13: savedOrderDetails&lt;/font&gt;" style="edgeLabel;html=1;align=center;verticalAlign=middle;resizable=0;points=[];" parent="fEn0n0unOJq2FUW5Gldk-44" vertex="1" connectable="0">
          <mxGeometry x="0.0139" y="1" relative="1" as="geometry">
            <mxPoint as="offset" />
          </mxGeometry>
        </mxCell>
        <mxCell id="fEn0n0unOJq2FUW5Gldk-49" value="11: &lt;font style=&quot;font-size: 10px;&quot;&gt;&lt;font style=&quot;font-size: 10px;&quot;&gt;saveOrder&lt;/font&gt;&lt;/font&gt;" style="html=1;verticalAlign=bottom;endArrow=open;rounded=0;endFill=0;" parent="1" edge="1">
          <mxGeometry x="-0.0456" width="80" relative="1" as="geometry">
            <mxPoint x="1362.5" y="460" as="sourcePoint" />
            <mxPoint x="1483" y="460" as="targetPoint" />
            <mxPoint as="offset" />
          </mxGeometry>
        </mxCell>
        <mxCell id="fEn0n0unOJq2FUW5Gldk-51" value="" style="html=1;points=[[0,0,0,0,5],[0,1,0,0,-5],[1,0,0,0,5],[1,1,0,0,-5]];perimeter=orthogonalPerimeter;outlineConnect=0;targetShapes=umlLifeline;portConstraint=eastwest;newEdgeStyle={&quot;curved&quot;:0,&quot;rounded&quot;:0};fillColor=#dae8fc;strokeColor=#6c8ebf;" parent="1" vertex="1">
          <mxGeometry x="1097.5" y="420" width="5" height="210" as="geometry" />
        </mxCell>
        <mxCell id="fEn0n0unOJq2FUW5Gldk-52" value="&lt;font style=&quot;font-size: 10px;&quot;&gt;9: update&lt;/font&gt;" style="html=1;verticalAlign=bottom;endArrow=open;rounded=0;endFill=0;exitX=1;exitY=0;exitDx=0;exitDy=5;exitPerimeter=0;" parent="1" target="fEn0n0unOJq2FUW5Gldk-25" edge="1">
          <mxGeometry x="0.0357" width="80" relative="1" as="geometry">
            <mxPoint x="1097.5" y="430" as="sourcePoint" />
            <mxPoint x="1232.5" y="430" as="targetPoint" />
            <mxPoint as="offset" />
          </mxGeometry>
        </mxCell>
        <mxCell id="fEn0n0unOJq2FUW5Gldk-53" value="" style="html=1;verticalAlign=bottom;endArrow=open;rounded=0;dashed=1;endFill=0;" parent="1" edge="1">
          <mxGeometry x="-0.08" y="10" width="80" relative="1" as="geometry">
            <mxPoint x="1479.69" y="500.00000000000006" as="sourcePoint" />
            <mxPoint x="1360.000344827586" y="500.00000000000006" as="targetPoint" />
            <mxPoint as="offset" />
          </mxGeometry>
        </mxCell>
        <mxCell id="fEn0n0unOJq2FUW5Gldk-54" value="&lt;font style=&quot;font-size: 8px;&quot;&gt;14: savedOrder&lt;/font&gt;" style="edgeLabel;html=1;align=center;verticalAlign=middle;resizable=0;points=[];" parent="fEn0n0unOJq2FUW5Gldk-53" vertex="1" connectable="0">
          <mxGeometry x="0.0139" y="1" relative="1" as="geometry">
            <mxPoint as="offset" />
          </mxGeometry>
        </mxCell>
        <mxCell id="fEn0n0unOJq2FUW5Gldk-55" value="" style="html=1;verticalAlign=bottom;endArrow=open;rounded=0;dashed=1;endFill=0;" parent="1" edge="1">
          <mxGeometry x="-0.08" y="10" width="80" relative="1" as="geometry">
            <mxPoint x="1359.69" y="509.6700000000001" as="sourcePoint" />
            <mxPoint x="1240.000344827586" y="509.6700000000001" as="targetPoint" />
            <mxPoint as="offset" />
          </mxGeometry>
        </mxCell>
        <mxCell id="fEn0n0unOJq2FUW5Gldk-56" value="&lt;font style=&quot;font-size: 8px;&quot;&gt;15: customerDTO&lt;/font&gt;" style="edgeLabel;html=1;align=center;verticalAlign=middle;resizable=0;points=[];" parent="fEn0n0unOJq2FUW5Gldk-55" vertex="1" connectable="0">
          <mxGeometry x="0.0139" y="1" relative="1" as="geometry">
            <mxPoint as="offset" />
          </mxGeometry>
        </mxCell>
        <mxCell id="fEn0n0unOJq2FUW5Gldk-57" value="" style="html=1;verticalAlign=bottom;endArrow=open;rounded=0;dashed=1;endFill=0;" parent="1" target="J7M1iKPz1tLLwmHf_Go_-12" edge="1">
          <mxGeometry x="-0.08" y="10" width="80" relative="1" as="geometry">
            <mxPoint x="1239.69" y="519.6700000000001" as="sourcePoint" />
            <mxPoint x="1120.000344827586" y="519.6700000000001" as="targetPoint" />
            <mxPoint as="offset" />
          </mxGeometry>
        </mxCell>
        <mxCell id="fEn0n0unOJq2FUW5Gldk-58" value="&lt;font style=&quot;font-size: 8px;&quot;&gt;16: inventoryUpdated&lt;br&gt;&lt;/font&gt;" style="edgeLabel;html=1;align=center;verticalAlign=middle;resizable=0;points=[];" parent="fEn0n0unOJq2FUW5Gldk-57" vertex="1" connectable="0">
          <mxGeometry x="0.0139" y="1" relative="1" as="geometry">
            <mxPoint as="offset" />
          </mxGeometry>
        </mxCell>
        <mxCell id="fEn0n0unOJq2FUW5Gldk-59" value="" style="html=1;verticalAlign=bottom;endArrow=open;rounded=0;dashed=1;endFill=0;" parent="1" edge="1">
          <mxGeometry x="-0.08" y="10" width="80" relative="1" as="geometry">
            <mxPoint x="1102.5" y="520.0000000000001" as="sourcePoint" />
            <mxPoint x="960" y="520" as="targetPoint" />
            <mxPoint as="offset" />
          </mxGeometry>
        </mxCell>
        <mxCell id="fEn0n0unOJq2FUW5Gldk-60" value="&lt;font style=&quot;font-size: 8px;&quot;&gt;17: productDTO&lt;br&gt;&lt;/font&gt;" style="edgeLabel;html=1;align=center;verticalAlign=middle;resizable=0;points=[];" parent="fEn0n0unOJq2FUW5Gldk-59" vertex="1" connectable="0">
          <mxGeometry x="0.0139" y="1" relative="1" as="geometry">
            <mxPoint as="offset" />
          </mxGeometry>
        </mxCell>
        <mxCell id="fEn0n0unOJq2FUW5Gldk-61" value="" style="html=1;verticalAlign=bottom;endArrow=open;rounded=0;dashed=1;endFill=0;" parent="1" target="J7M1iKPz1tLLwmHf_Go_-19" edge="1">
          <mxGeometry x="-0.08" y="10" width="80" relative="1" as="geometry">
            <mxPoint x="960" y="530" as="sourcePoint" />
            <mxPoint x="840" y="530" as="targetPoint" />
            <mxPoint as="offset" />
          </mxGeometry>
        </mxCell>
        <mxCell id="fEn0n0unOJq2FUW5Gldk-62" value="&lt;font style=&quot;font-size: 9px;&quot;&gt;18: OrderPlaced&lt;/font&gt;" style="edgeLabel;html=1;align=center;verticalAlign=middle;resizable=0;points=[];" parent="fEn0n0unOJq2FUW5Gldk-61" vertex="1" connectable="0">
          <mxGeometry x="0.0139" y="1" relative="1" as="geometry">
            <mxPoint as="offset" />
          </mxGeometry>
        </mxCell>
        <mxCell id="fEn0n0unOJq2FUW5Gldk-64" value="" style="html=1;verticalAlign=bottom;endArrow=open;rounded=0;dashed=1;endFill=0;" parent="1" edge="1">
          <mxGeometry x="-0.08" y="10" width="80" relative="1" as="geometry">
            <mxPoint x="824" y="540" as="sourcePoint" />
            <mxPoint x="694" y="540" as="targetPoint" />
            <mxPoint as="offset" />
          </mxGeometry>
        </mxCell>
        <mxCell id="fEn0n0unOJq2FUW5Gldk-65" value="&lt;font style=&quot;font-size: 9px;&quot;&gt;19: OrderPlaced&lt;/font&gt;" style="edgeLabel;html=1;align=center;verticalAlign=middle;resizable=0;points=[];" parent="fEn0n0unOJq2FUW5Gldk-64" vertex="1" connectable="0">
          <mxGeometry x="0.0139" y="1" relative="1" as="geometry">
            <mxPoint as="offset" />
          </mxGeometry>
        </mxCell>
        <mxCell id="fEn0n0unOJq2FUW5Gldk-66" value="" style="html=1;verticalAlign=bottom;endArrow=open;rounded=0;dashed=1;endFill=0;" parent="1" target="J7M1iKPz1tLLwmHf_Go_-7" edge="1">
          <mxGeometry x="-0.08" y="10" width="80" relative="1" as="geometry">
            <mxPoint x="680" y="550" as="sourcePoint" />
            <mxPoint x="560" y="550" as="targetPoint" />
            <mxPoint as="offset" />
          </mxGeometry>
        </mxCell>
        <mxCell id="fEn0n0unOJq2FUW5Gldk-67" value="&lt;font style=&quot;font-size: 9px;&quot;&gt;20: OrderPlaced&lt;/font&gt;" style="edgeLabel;html=1;align=center;verticalAlign=middle;resizable=0;points=[];" parent="fEn0n0unOJq2FUW5Gldk-66" vertex="1" connectable="0">
          <mxGeometry x="0.0139" y="1" relative="1" as="geometry">
            <mxPoint as="offset" />
          </mxGeometry>
        </mxCell>
        <mxCell id="fEn0n0unOJq2FUW5Gldk-69" value="" style="html=1;verticalAlign=bottom;endArrow=open;rounded=0;dashed=1;endFill=0;" parent="1" source="J7M1iKPz1tLLwmHf_Go_-7" target="J7M1iKPz1tLLwmHf_Go_-2" edge="1">
          <mxGeometry x="-0.08" y="10" width="80" relative="1" as="geometry">
            <mxPoint x="540" y="560" as="sourcePoint" />
            <mxPoint x="415" y="560" as="targetPoint" />
            <mxPoint as="offset" />
            <Array as="points">
              <mxPoint x="510" y="560" />
            </Array>
          </mxGeometry>
        </mxCell>
        <mxCell id="fEn0n0unOJq2FUW5Gldk-70" value="&lt;font style=&quot;font-size: 9px;&quot;&gt;21: OrderPlaced&lt;/font&gt;" style="edgeLabel;html=1;align=center;verticalAlign=middle;resizable=0;points=[];" parent="fEn0n0unOJq2FUW5Gldk-69" vertex="1" connectable="0">
          <mxGeometry x="0.0139" y="1" relative="1" as="geometry">
            <mxPoint as="offset" />
          </mxGeometry>
        </mxCell>
        <mxCell id="fEn0n0unOJq2FUW5Gldk-73" value="" style="html=1;verticalAlign=bottom;endArrow=open;rounded=0;dashed=1;endFill=0;" parent="1" edge="1">
          <mxGeometry x="-0.08" y="10" width="80" relative="1" as="geometry">
            <mxPoint x="962.5" y="604.66" as="sourcePoint" />
            <mxPoint x="835.5" y="604.66" as="targetPoint" />
            <mxPoint as="offset" />
          </mxGeometry>
        </mxCell>
        <mxCell id="fEn0n0unOJq2FUW5Gldk-74" value="&lt;font style=&quot;font-size: 9px;&quot;&gt;18: &lt;/font&gt;&lt;font style=&quot;font-size: 10px;&quot;&gt;return &lt;/font&gt;&lt;font style=&quot;font-size: 9px;&quot;&gt;exception&lt;br&gt;&lt;/font&gt;" style="edgeLabel;html=1;align=center;verticalAlign=middle;resizable=0;points=[];" parent="fEn0n0unOJq2FUW5Gldk-73" vertex="1" connectable="0">
          <mxGeometry x="0.0139" y="1" relative="1" as="geometry">
            <mxPoint as="offset" />
          </mxGeometry>
        </mxCell>
        <mxCell id="fEn0n0unOJq2FUW5Gldk-75" value="" style="html=1;verticalAlign=bottom;endArrow=open;rounded=0;dashed=1;endFill=0;" parent="1" target="J7M1iKPz1tLLwmHf_Go_-9" edge="1">
          <mxGeometry x="-0.08" y="10" width="80" relative="1" as="geometry">
            <mxPoint x="827.5" y="610" as="sourcePoint" />
            <mxPoint x="700.5" y="610" as="targetPoint" />
            <mxPoint as="offset" />
          </mxGeometry>
        </mxCell>
        <mxCell id="fEn0n0unOJq2FUW5Gldk-76" value="&lt;font style=&quot;font-size: 9px;&quot;&gt;19: &lt;/font&gt;&lt;font style=&quot;font-size: 10px;&quot;&gt;return &lt;/font&gt;&lt;font style=&quot;font-size: 9px;&quot;&gt;exception&lt;/font&gt;" style="edgeLabel;html=1;align=center;verticalAlign=middle;resizable=0;points=[];" parent="fEn0n0unOJq2FUW5Gldk-75" vertex="1" connectable="0">
          <mxGeometry x="0.0139" y="1" relative="1" as="geometry">
            <mxPoint as="offset" />
          </mxGeometry>
        </mxCell>
        <mxCell id="fEn0n0unOJq2FUW5Gldk-77" value="" style="html=1;verticalAlign=bottom;endArrow=open;rounded=0;dashed=1;endFill=0;" parent="1" edge="1">
          <mxGeometry x="-0.08" y="10" width="80" relative="1" as="geometry">
            <mxPoint x="684.5" y="620" as="sourcePoint" />
            <mxPoint x="550" y="620" as="targetPoint" />
            <mxPoint as="offset" />
          </mxGeometry>
        </mxCell>
        <mxCell id="fEn0n0unOJq2FUW5Gldk-78" value="&lt;font style=&quot;font-size: 9px;&quot;&gt;20: &lt;/font&gt;&lt;font style=&quot;font-size: 10px;&quot;&gt;return &lt;/font&gt;&lt;font style=&quot;font-size: 9px;&quot;&gt;exception&lt;/font&gt;" style="edgeLabel;html=1;align=center;verticalAlign=middle;resizable=0;points=[];" parent="fEn0n0unOJq2FUW5Gldk-77" vertex="1" connectable="0">
          <mxGeometry x="0.0139" y="1" relative="1" as="geometry">
            <mxPoint as="offset" />
          </mxGeometry>
        </mxCell>
        <mxCell id="fEn0n0unOJq2FUW5Gldk-79" value="" style="html=1;verticalAlign=bottom;endArrow=open;rounded=0;dashed=1;endFill=0;" parent="1" target="J7M1iKPz1tLLwmHf_Go_-2" edge="1">
          <mxGeometry x="-0.08" y="10" width="80" relative="1" as="geometry">
            <mxPoint x="544.5" y="624.66" as="sourcePoint" />
            <mxPoint x="410" y="624.66" as="targetPoint" />
            <mxPoint as="offset" />
          </mxGeometry>
        </mxCell>
        <mxCell id="fEn0n0unOJq2FUW5Gldk-80" value="&lt;font style=&quot;font-size: 9px;&quot;&gt;20: &lt;/font&gt;&lt;font style=&quot;font-size: 10px;&quot;&gt;return &lt;/font&gt;&lt;font style=&quot;font-size: 9px;&quot;&gt;exception&lt;/font&gt;" style="edgeLabel;html=1;align=center;verticalAlign=middle;resizable=0;points=[];" parent="fEn0n0unOJq2FUW5Gldk-79" vertex="1" connectable="0">
          <mxGeometry x="0.0139" y="1" relative="1" as="geometry">
            <mxPoint as="offset" />
          </mxGeometry>
        </mxCell>
      </root>
    </mxGraphModel>
  </diagram>
</mxfile>
